<mxfile host="app.diagrams.net" agent="Mozilla/5.0 (Windows NT 10.0; Win64; x64) AppleWebKit/537.36 (KHTML, like Gecko) Chrome/135.0.0.0 Safari/537.36" version="26.2.13">
  <diagram name="Page-1" id="CmLqrDDIBEYrlUWkDVZ6">
    <mxGraphModel dx="1044" dy="1450" grid="1" gridSize="10" guides="1" tooltips="1" connect="1" arrows="1" fold="1" page="1" pageScale="1" pageWidth="583" pageHeight="827" math="0" shadow="0">
      <root>
        <mxCell id="0" />
        <mxCell id="1" parent="0" />
        <mxCell id="fAu7AS8wdz9JEPkFu88W-1" value="Utilisateur" style="swimlane;whiteSpace=wrap;html=1;startSize=23;" vertex="1" parent="1">
          <mxGeometry x="450" y="80" width="210" height="220" as="geometry" />
        </mxCell>
        <mxCell id="fAu7AS8wdz9JEPkFu88W-2" value="iIDUtilisateur" style="text;html=1;align=center;verticalAlign=middle;whiteSpace=wrap;rounded=0;" vertex="1" parent="fAu7AS8wdz9JEPkFu88W-1">
          <mxGeometry x="55" y="30" width="90" height="30" as="geometry" />
        </mxCell>
        <mxCell id="fAu7AS8wdz9JEPkFu88W-3" value="Nom" style="text;html=1;align=center;verticalAlign=middle;whiteSpace=wrap;rounded=0;" vertex="1" parent="fAu7AS8wdz9JEPkFu88W-1">
          <mxGeometry x="70" y="50" width="60" height="30" as="geometry" />
        </mxCell>
        <mxCell id="fAu7AS8wdz9JEPkFu88W-4" value="Email" style="text;html=1;align=center;verticalAlign=middle;whiteSpace=wrap;rounded=0;" vertex="1" parent="fAu7AS8wdz9JEPkFu88W-1">
          <mxGeometry x="70" y="70" width="60" height="30" as="geometry" />
        </mxCell>
        <mxCell id="fAu7AS8wdz9JEPkFu88W-5" value="Mot de passe" style="text;html=1;align=center;verticalAlign=middle;whiteSpace=wrap;rounded=0;" vertex="1" parent="fAu7AS8wdz9JEPkFu88W-1">
          <mxGeometry x="70" y="95" width="90" height="30" as="geometry" />
        </mxCell>
        <mxCell id="fAu7AS8wdz9JEPkFu88W-6" value="Role" style="text;html=1;align=center;verticalAlign=middle;resizable=0;points=[];autosize=1;strokeColor=none;fillColor=none;" vertex="1" parent="fAu7AS8wdz9JEPkFu88W-1">
          <mxGeometry x="75" y="120" width="50" height="30" as="geometry" />
        </mxCell>
        <mxCell id="fAu7AS8wdz9JEPkFu88W-7" value="" style="line;strokeWidth=2;html=1;" vertex="1" parent="fAu7AS8wdz9JEPkFu88W-1">
          <mxGeometry x="5" y="140" width="200" height="10" as="geometry" />
        </mxCell>
        <mxCell id="fAu7AS8wdz9JEPkFu88W-8" value="EnvoyerMessage" style="text;html=1;align=center;verticalAlign=middle;whiteSpace=wrap;rounded=0;" vertex="1" parent="fAu7AS8wdz9JEPkFu88W-1">
          <mxGeometry x="70" y="180" width="60" height="30" as="geometry" />
        </mxCell>
        <mxCell id="fAu7AS8wdz9JEPkFu88W-9" value="InscrireFormateur" style="text;html=1;align=center;verticalAlign=middle;resizable=0;points=[];autosize=1;strokeColor=none;fillColor=none;" vertex="1" parent="fAu7AS8wdz9JEPkFu88W-1">
          <mxGeometry x="40" y="160" width="120" height="30" as="geometry" />
        </mxCell>
        <mxCell id="fAu7AS8wdz9JEPkFu88W-10" value="" style="shape=partialRectangle;whiteSpace=wrap;html=1;bottom=0;top=0;fillColor=none;" vertex="1" parent="1">
          <mxGeometry x="440" y="354" width="240" height="60" as="geometry" />
        </mxCell>
        <mxCell id="fAu7AS8wdz9JEPkFu88W-11" value="Formateur" style="swimlane;whiteSpace=wrap;html=1;" vertex="1" parent="1">
          <mxGeometry x="349" y="409" width="200" height="165" as="geometry" />
        </mxCell>
        <mxCell id="fAu7AS8wdz9JEPkFu88W-12" value="CreerFormation" style="text;html=1;align=center;verticalAlign=middle;whiteSpace=wrap;rounded=0;" vertex="1" parent="fAu7AS8wdz9JEPkFu88W-11">
          <mxGeometry x="65" y="26" width="60" height="30" as="geometry" />
        </mxCell>
        <mxCell id="fAu7AS8wdz9JEPkFu88W-13" value="ModifierFormation" style="text;html=1;align=center;verticalAlign=middle;whiteSpace=wrap;rounded=0;" vertex="1" parent="fAu7AS8wdz9JEPkFu88W-11">
          <mxGeometry x="65" y="56" width="60" height="30" as="geometry" />
        </mxCell>
        <mxCell id="fAu7AS8wdz9JEPkFu88W-14" value="SupprimerFormation" style="text;html=1;align=center;verticalAlign=middle;whiteSpace=wrap;rounded=0;" vertex="1" parent="fAu7AS8wdz9JEPkFu88W-11">
          <mxGeometry x="65" y="85" width="60" height="30" as="geometry" />
        </mxCell>
        <mxCell id="fAu7AS8wdz9JEPkFu88W-15" value="Apprenti" style="swimlane;whiteSpace=wrap;html=1;" vertex="1" parent="1">
          <mxGeometry x="600" y="414" width="180" height="116" as="geometry" />
        </mxCell>
        <mxCell id="fAu7AS8wdz9JEPkFu88W-16" value="Ajouterpanier" style="text;html=1;align=center;verticalAlign=middle;whiteSpace=wrap;rounded=0;" vertex="1" parent="fAu7AS8wdz9JEPkFu88W-15">
          <mxGeometry x="65" y="31" width="60" height="30" as="geometry" />
        </mxCell>
        <mxCell id="fAu7AS8wdz9JEPkFu88W-17" value="RetirerPanier" style="text;html=1;align=center;verticalAlign=middle;whiteSpace=wrap;rounded=0;" vertex="1" parent="fAu7AS8wdz9JEPkFu88W-15">
          <mxGeometry x="65" y="61" width="60" height="30" as="geometry" />
        </mxCell>
        <mxCell id="fAu7AS8wdz9JEPkFu88W-18" value="Message" style="swimlane;whiteSpace=wrap;html=1;align=center;" vertex="1" parent="1">
          <mxGeometry x="90" y="80" width="200" height="190" as="geometry" />
        </mxCell>
        <mxCell id="fAu7AS8wdz9JEPkFu88W-19" value="IDMessage" style="text;html=1;align=center;verticalAlign=middle;resizable=0;points=[];autosize=1;strokeColor=none;fillColor=none;" vertex="1" parent="fAu7AS8wdz9JEPkFu88W-18">
          <mxGeometry x="40" y="30" width="80" height="30" as="geometry" />
        </mxCell>
        <mxCell id="fAu7AS8wdz9JEPkFu88W-20" value="Contenu" style="text;html=1;align=center;verticalAlign=middle;whiteSpace=wrap;rounded=0;" vertex="1" parent="fAu7AS8wdz9JEPkFu88W-18">
          <mxGeometry x="50" y="60" width="60" height="30" as="geometry" />
        </mxCell>
        <mxCell id="fAu7AS8wdz9JEPkFu88W-21" value="DateEnvoi" style="text;html=1;align=center;verticalAlign=middle;whiteSpace=wrap;rounded=0;" vertex="1" parent="fAu7AS8wdz9JEPkFu88W-18">
          <mxGeometry x="50" y="90" width="60" height="30" as="geometry" />
        </mxCell>
        <mxCell id="fAu7AS8wdz9JEPkFu88W-22" value="Expediteur" style="text;html=1;align=center;verticalAlign=middle;whiteSpace=wrap;rounded=0;" vertex="1" parent="fAu7AS8wdz9JEPkFu88W-18">
          <mxGeometry x="50" y="121" width="60" height="30" as="geometry" />
        </mxCell>
        <mxCell id="fAu7AS8wdz9JEPkFu88W-23" value="Destinataire" style="text;html=1;align=center;verticalAlign=middle;whiteSpace=wrap;rounded=0;" vertex="1" parent="fAu7AS8wdz9JEPkFu88W-18">
          <mxGeometry x="50" y="151" width="60" height="30" as="geometry" />
        </mxCell>
        <mxCell id="fAu7AS8wdz9JEPkFu88W-24" value="" style="edgeStyle=segmentEdgeStyle;endArrow=classic;html=1;curved=0;rounded=0;endSize=8;startSize=8;" edge="1" parent="1" source="fAu7AS8wdz9JEPkFu88W-26">
          <mxGeometry width="50" height="50" relative="1" as="geometry">
            <mxPoint x="510" y="350" as="sourcePoint" />
            <mxPoint x="560" y="300" as="targetPoint" />
          </mxGeometry>
        </mxCell>
        <mxCell id="fAu7AS8wdz9JEPkFu88W-25" value="" style="edgeStyle=segmentEdgeStyle;endArrow=classic;html=1;curved=0;rounded=0;endSize=8;startSize=8;" edge="1" parent="1" target="fAu7AS8wdz9JEPkFu88W-26">
          <mxGeometry width="50" height="50" relative="1" as="geometry">
            <mxPoint x="510" y="350" as="sourcePoint" />
            <mxPoint x="560" y="300" as="targetPoint" />
          </mxGeometry>
        </mxCell>
        <mxCell id="fAu7AS8wdz9JEPkFu88W-26" value="" style="line;strokeWidth=2;html=1;" vertex="1" parent="1">
          <mxGeometry x="440" y="350" width="240" height="10" as="geometry" />
        </mxCell>
        <mxCell id="fAu7AS8wdz9JEPkFu88W-27" value="Formation" style="swimlane;whiteSpace=wrap;html=1;" vertex="1" parent="1">
          <mxGeometry x="345" y="660" width="240" height="250" as="geometry" />
        </mxCell>
        <mxCell id="fAu7AS8wdz9JEPkFu88W-28" value="IDFormation" style="text;html=1;align=center;verticalAlign=middle;whiteSpace=wrap;rounded=0;" vertex="1" parent="fAu7AS8wdz9JEPkFu88W-27">
          <mxGeometry x="85" y="30" width="60" height="30" as="geometry" />
        </mxCell>
        <mxCell id="fAu7AS8wdz9JEPkFu88W-29" value="Titre" style="text;html=1;align=center;verticalAlign=middle;whiteSpace=wrap;rounded=0;" vertex="1" parent="fAu7AS8wdz9JEPkFu88W-27">
          <mxGeometry x="85" y="50" width="60" height="30" as="geometry" />
        </mxCell>
        <mxCell id="fAu7AS8wdz9JEPkFu88W-30" value="Description" style="text;html=1;align=center;verticalAlign=middle;whiteSpace=wrap;rounded=0;" vertex="1" parent="fAu7AS8wdz9JEPkFu88W-27">
          <mxGeometry x="87.5" y="70" width="60" height="30" as="geometry" />
        </mxCell>
        <mxCell id="fAu7AS8wdz9JEPkFu88W-31" value="adresseFormation" style="text;html=1;align=center;verticalAlign=middle;whiteSpace=wrap;rounded=0;" vertex="1" parent="fAu7AS8wdz9JEPkFu88W-27">
          <mxGeometry x="87.5" y="100" width="60" height="30" as="geometry" />
        </mxCell>
        <mxCell id="fAu7AS8wdz9JEPkFu88W-32" value="NbVues" style="text;html=1;align=center;verticalAlign=middle;whiteSpace=wrap;rounded=0;" vertex="1" parent="fAu7AS8wdz9JEPkFu88W-27">
          <mxGeometry x="85" y="120" width="60" height="30" as="geometry" />
        </mxCell>
        <mxCell id="fAu7AS8wdz9JEPkFu88W-33" value="" style="line;strokeWidth=2;html=1;" vertex="1" parent="fAu7AS8wdz9JEPkFu88W-27">
          <mxGeometry y="190" width="240" height="10" as="geometry" />
        </mxCell>
        <mxCell id="fAu7AS8wdz9JEPkFu88W-34" value="MaxParticipant" style="text;html=1;align=center;verticalAlign=middle;whiteSpace=wrap;rounded=0;" vertex="1" parent="fAu7AS8wdz9JEPkFu88W-27">
          <mxGeometry x="87.5" y="140" width="60" height="30" as="geometry" />
        </mxCell>
        <mxCell id="fAu7AS8wdz9JEPkFu88W-35" value="AjouterVue" style="text;html=1;align=center;verticalAlign=middle;whiteSpace=wrap;rounded=0;" vertex="1" parent="fAu7AS8wdz9JEPkFu88W-27">
          <mxGeometry x="95" y="200" width="60" height="30" as="geometry" />
        </mxCell>
        <mxCell id="fAu7AS8wdz9JEPkFu88W-36" value="InscrireApprenant" style="text;html=1;align=center;verticalAlign=middle;whiteSpace=wrap;rounded=0;" vertex="1" parent="fAu7AS8wdz9JEPkFu88W-27">
          <mxGeometry x="95" y="220" width="60" height="30" as="geometry" />
        </mxCell>
        <mxCell id="fAu7AS8wdz9JEPkFu88W-98" value="" style="line;strokeWidth=2;html=1;" vertex="1" parent="fAu7AS8wdz9JEPkFu88W-27">
          <mxGeometry x="-100" y="100" width="100" height="10" as="geometry" />
        </mxCell>
        <mxCell id="fAu7AS8wdz9JEPkFu88W-116" value="&lt;font style=&quot;font-size: 18px;&quot;&gt;1&lt;/font&gt;" style="text;html=1;align=center;verticalAlign=middle;whiteSpace=wrap;rounded=0;" vertex="1" parent="fAu7AS8wdz9JEPkFu88W-27">
          <mxGeometry x="-35" y="80" width="60" height="30" as="geometry" />
        </mxCell>
        <mxCell id="fAu7AS8wdz9JEPkFu88W-38" value="Chat" style="swimlane;whiteSpace=wrap;html=1;startSize=23;" vertex="1" parent="1">
          <mxGeometry x="80" y="409" width="160" height="121" as="geometry" />
        </mxCell>
        <mxCell id="fAu7AS8wdz9JEPkFu88W-39" value="Messages" style="text;html=1;align=center;verticalAlign=middle;whiteSpace=wrap;rounded=0;" vertex="1" parent="fAu7AS8wdz9JEPkFu88W-38">
          <mxGeometry x="50" y="29" width="60" height="30" as="geometry" />
        </mxCell>
        <mxCell id="fAu7AS8wdz9JEPkFu88W-40" value="" style="line;strokeWidth=2;html=1;" vertex="1" parent="fAu7AS8wdz9JEPkFu88W-38">
          <mxGeometry y="70" width="160" height="10" as="geometry" />
        </mxCell>
        <mxCell id="fAu7AS8wdz9JEPkFu88W-41" value="EnvoyerMesaages" style="text;html=1;align=center;verticalAlign=middle;whiteSpace=wrap;rounded=0;" vertex="1" parent="fAu7AS8wdz9JEPkFu88W-38">
          <mxGeometry x="60" y="80" width="60" height="30" as="geometry" />
        </mxCell>
        <mxCell id="fAu7AS8wdz9JEPkFu88W-131" value="archive" style="text;html=1;align=center;verticalAlign=middle;resizable=0;points=[];autosize=1;strokeColor=none;fillColor=none;" vertex="1" parent="fAu7AS8wdz9JEPkFu88W-38">
          <mxGeometry x="50" y="50" width="60" height="30" as="geometry" />
        </mxCell>
        <mxCell id="fAu7AS8wdz9JEPkFu88W-42" value="Wishlist" style="swimlane;whiteSpace=wrap;html=1;" vertex="1" parent="1">
          <mxGeometry x="650" y="610" width="190" height="126" as="geometry" />
        </mxCell>
        <mxCell id="fAu7AS8wdz9JEPkFu88W-43" value="IDPanier" style="text;html=1;align=center;verticalAlign=middle;whiteSpace=wrap;rounded=0;" vertex="1" parent="fAu7AS8wdz9JEPkFu88W-42">
          <mxGeometry x="70" y="35" width="60" height="20" as="geometry" />
        </mxCell>
        <mxCell id="fAu7AS8wdz9JEPkFu88W-44" value="Apprenant" style="text;html=1;align=center;verticalAlign=middle;whiteSpace=wrap;rounded=0;" vertex="1" parent="fAu7AS8wdz9JEPkFu88W-42">
          <mxGeometry x="70" y="56" width="60" height="30" as="geometry" />
        </mxCell>
        <mxCell id="fAu7AS8wdz9JEPkFu88W-45" value="Formation" style="text;html=1;align=center;verticalAlign=middle;whiteSpace=wrap;rounded=0;" vertex="1" parent="fAu7AS8wdz9JEPkFu88W-42">
          <mxGeometry x="70" y="86" width="60" height="30" as="geometry" />
        </mxCell>
        <mxCell id="fAu7AS8wdz9JEPkFu88W-46" value="Localisation" style="swimlane;whiteSpace=wrap;html=1;" vertex="1" parent="1">
          <mxGeometry x="455" y="-180" width="195" height="180" as="geometry" />
        </mxCell>
        <mxCell id="fAu7AS8wdz9JEPkFu88W-47" value="IDLocalisation" style="text;html=1;align=center;verticalAlign=middle;whiteSpace=wrap;rounded=0;" vertex="1" parent="fAu7AS8wdz9JEPkFu88W-46">
          <mxGeometry x="50" y="40" width="60" height="30" as="geometry" />
        </mxCell>
        <mxCell id="fAu7AS8wdz9JEPkFu88W-48" value="Pays" style="text;html=1;align=center;verticalAlign=middle;whiteSpace=wrap;rounded=0;" vertex="1" parent="fAu7AS8wdz9JEPkFu88W-46">
          <mxGeometry x="60" y="70" width="60" height="30" as="geometry" />
        </mxCell>
        <mxCell id="fAu7AS8wdz9JEPkFu88W-49" value="Villes" style="text;html=1;align=center;verticalAlign=middle;whiteSpace=wrap;rounded=0;" vertex="1" parent="fAu7AS8wdz9JEPkFu88W-46">
          <mxGeometry x="60" y="100" width="60" height="20" as="geometry" />
        </mxCell>
        <mxCell id="fAu7AS8wdz9JEPkFu88W-50" value="Adresse" style="text;html=1;align=center;verticalAlign=middle;whiteSpace=wrap;rounded=0;" vertex="1" parent="fAu7AS8wdz9JEPkFu88W-46">
          <mxGeometry x="65" y="140" width="60" height="30" as="geometry" />
        </mxCell>
        <mxCell id="fAu7AS8wdz9JEPkFu88W-58" value="&lt;font style=&quot;font-size: 18px;&quot;&gt;1&lt;/font&gt;" style="text;html=1;align=center;verticalAlign=middle;whiteSpace=wrap;rounded=0;" vertex="1" parent="1">
          <mxGeometry x="530" width="60" height="30" as="geometry" />
        </mxCell>
        <mxCell id="fAu7AS8wdz9JEPkFu88W-59" value="1" style="text;html=1;align=center;verticalAlign=middle;whiteSpace=wrap;rounded=0;fontSize=18;" vertex="1" parent="1">
          <mxGeometry x="530" y="50" width="60" height="30" as="geometry" />
        </mxCell>
        <mxCell id="fAu7AS8wdz9JEPkFu88W-60" value="Diagramme de classe App d&#39;apprentis" style="text;strokeColor=none;fillColor=none;html=1;fontSize=24;fontStyle=1;verticalAlign=middle;align=center;" vertex="1" parent="1">
          <mxGeometry x="490" y="-260" width="120" height="40" as="geometry" />
        </mxCell>
        <mxCell id="fAu7AS8wdz9JEPkFu88W-61" value="" style="shape=crossbar;whiteSpace=wrap;html=1;rounded=1;direction=south;" vertex="1" parent="1">
          <mxGeometry x="540" width="20" height="80" as="geometry" />
        </mxCell>
        <mxCell id="fAu7AS8wdz9JEPkFu88W-62" value="&lt;font style=&quot;font-size: 18px;&quot;&gt;1&lt;/font&gt;" style="text;html=1;align=center;verticalAlign=middle;whiteSpace=wrap;rounded=0;" vertex="1" parent="1">
          <mxGeometry x="150" y="384" width="60" height="30" as="geometry" />
        </mxCell>
        <mxCell id="fAu7AS8wdz9JEPkFu88W-63" value="1" style="text;html=1;align=center;verticalAlign=middle;whiteSpace=wrap;rounded=0;fontSize=18;rotation=0;" vertex="1" parent="1">
          <mxGeometry x="410" y="140" width="60" height="30" as="geometry" />
        </mxCell>
        <mxCell id="fAu7AS8wdz9JEPkFu88W-64" value="" style="shape=crossbar;whiteSpace=wrap;html=1;rounded=1;direction=south;" vertex="1" parent="1">
          <mxGeometry x="160" y="270" width="20" height="140" as="geometry" />
        </mxCell>
        <mxCell id="fAu7AS8wdz9JEPkFu88W-65" value="" style="line;strokeWidth=2;html=1;" vertex="1" parent="1">
          <mxGeometry x="290" y="160" width="160" height="10" as="geometry" />
        </mxCell>
        <mxCell id="fAu7AS8wdz9JEPkFu88W-66" value="0..*" style="text;html=1;align=center;verticalAlign=middle;whiteSpace=wrap;rounded=0;fontSize=18;" vertex="1" parent="1">
          <mxGeometry x="280" y="140" width="60" height="30" as="geometry" />
        </mxCell>
        <mxCell id="fAu7AS8wdz9JEPkFu88W-67" value="0..*" style="text;html=1;align=center;verticalAlign=middle;whiteSpace=wrap;rounded=0;fontSize=18;" vertex="1" parent="1">
          <mxGeometry x="160" y="270" width="60" height="30" as="geometry" />
        </mxCell>
        <mxCell id="fAu7AS8wdz9JEPkFu88W-68" value="" style="line;strokeWidth=2;html=1;" vertex="1" parent="1">
          <mxGeometry x="290" y="213" width="160" height="10" as="geometry" />
        </mxCell>
        <mxCell id="fAu7AS8wdz9JEPkFu88W-69" value="FormationSuivi" style="swimlane;whiteSpace=wrap;html=1;startSize=23;" vertex="1" parent="1">
          <mxGeometry x="900" y="413" width="210" height="137" as="geometry" />
        </mxCell>
        <mxCell id="fAu7AS8wdz9JEPkFu88W-70" value="IDFormationSuivie" style="text;html=1;align=center;verticalAlign=middle;whiteSpace=wrap;rounded=0;" vertex="1" parent="fAu7AS8wdz9JEPkFu88W-69">
          <mxGeometry x="70" y="40" width="60" height="30" as="geometry" />
        </mxCell>
        <mxCell id="fAu7AS8wdz9JEPkFu88W-71" value="DateDebut" style="text;html=1;align=center;verticalAlign=middle;whiteSpace=wrap;rounded=0;" vertex="1" parent="fAu7AS8wdz9JEPkFu88W-69">
          <mxGeometry x="70" y="60" width="60" height="30" as="geometry" />
        </mxCell>
        <mxCell id="fAu7AS8wdz9JEPkFu88W-72" value="DateFin" style="text;html=1;align=center;verticalAlign=middle;whiteSpace=wrap;rounded=0;" vertex="1" parent="fAu7AS8wdz9JEPkFu88W-69">
          <mxGeometry x="70" y="90" width="60" height="30" as="geometry" />
        </mxCell>
        <mxCell id="fAu7AS8wdz9JEPkFu88W-73" value="Media" style="swimlane;whiteSpace=wrap;html=1;startSize=20;" vertex="1" parent="1">
          <mxGeometry x="75" y="676" width="170" height="130" as="geometry" />
        </mxCell>
        <mxCell id="fAu7AS8wdz9JEPkFu88W-74" value="url" style="text;html=1;align=center;verticalAlign=middle;resizable=0;points=[];autosize=1;strokeColor=none;fillColor=none;" vertex="1" parent="fAu7AS8wdz9JEPkFu88W-73">
          <mxGeometry x="80" y="100" width="40" height="30" as="geometry" />
        </mxCell>
        <mxCell id="fAu7AS8wdz9JEPkFu88W-75" value="Type" style="text;html=1;align=center;verticalAlign=middle;resizable=0;points=[];autosize=1;strokeColor=none;fillColor=none;" vertex="1" parent="fAu7AS8wdz9JEPkFu88W-73">
          <mxGeometry x="75" y="80" width="50" height="30" as="geometry" />
        </mxCell>
        <mxCell id="fAu7AS8wdz9JEPkFu88W-76" value="Nom" style="text;html=1;align=center;verticalAlign=middle;resizable=0;points=[];autosize=1;strokeColor=none;fillColor=none;" vertex="1" parent="fAu7AS8wdz9JEPkFu88W-73">
          <mxGeometry x="75" y="55" width="50" height="30" as="geometry" />
        </mxCell>
        <mxCell id="fAu7AS8wdz9JEPkFu88W-77" value="IDMedia" style="text;html=1;align=center;verticalAlign=middle;resizable=0;points=[];autosize=1;strokeColor=none;fillColor=none;" vertex="1" parent="fAu7AS8wdz9JEPkFu88W-73">
          <mxGeometry x="65" y="30" width="70" height="30" as="geometry" />
        </mxCell>
        <mxCell id="fAu7AS8wdz9JEPkFu88W-78" value="SessionFormation" style="swimlane;whiteSpace=wrap;html=1;" vertex="1" parent="1">
          <mxGeometry x="920" y="606" width="200" height="200" as="geometry" />
        </mxCell>
        <mxCell id="fAu7AS8wdz9JEPkFu88W-79" value="&lt;i&gt;IDSessionFormation&lt;/i&gt;" style="text;html=1;align=center;verticalAlign=middle;whiteSpace=wrap;rounded=0;" vertex="1" parent="fAu7AS8wdz9JEPkFu88W-78">
          <mxGeometry x="70" y="30" width="60" height="30" as="geometry" />
        </mxCell>
        <mxCell id="fAu7AS8wdz9JEPkFu88W-80" value="DateSessiont" style="text;html=1;align=center;verticalAlign=middle;whiteSpace=wrap;rounded=0;" vertex="1" parent="fAu7AS8wdz9JEPkFu88W-78">
          <mxGeometry x="65" y="50" width="60" height="30" as="geometry" />
        </mxCell>
        <mxCell id="fAu7AS8wdz9JEPkFu88W-81" value="NbParticipant" style="text;html=1;align=center;verticalAlign=middle;whiteSpace=wrap;rounded=0;" vertex="1" parent="fAu7AS8wdz9JEPkFu88W-78">
          <mxGeometry x="70" y="80" width="60" height="30" as="geometry" />
        </mxCell>
        <mxCell id="fAu7AS8wdz9JEPkFu88W-82" value="status" style="text;html=1;align=center;verticalAlign=middle;whiteSpace=wrap;rounded=0;" vertex="1" parent="fAu7AS8wdz9JEPkFu88W-78">
          <mxGeometry x="65" y="110" width="60" height="30" as="geometry" />
        </mxCell>
        <mxCell id="fAu7AS8wdz9JEPkFu88W-83" value="0..*" style="text;html=1;align=center;verticalAlign=middle;whiteSpace=wrap;rounded=0;fontSize=18;" vertex="1" parent="1">
          <mxGeometry x="280" y="190" width="60" height="30" as="geometry" />
        </mxCell>
        <mxCell id="fAu7AS8wdz9JEPkFu88W-84" value="1" style="text;html=1;align=center;verticalAlign=middle;whiteSpace=wrap;rounded=0;fontSize=18;rotation=0;" vertex="1" parent="1">
          <mxGeometry x="570" y="827" width="60" height="30" as="geometry" />
        </mxCell>
        <mxCell id="fAu7AS8wdz9JEPkFu88W-85" value="&lt;font style=&quot;font-size: 18px;&quot;&gt;1&lt;/font&gt;" style="text;html=1;align=center;verticalAlign=middle;whiteSpace=wrap;rounded=0;" vertex="1" parent="1">
          <mxGeometry x="990" y="580" width="60" height="30" as="geometry" />
        </mxCell>
        <mxCell id="fAu7AS8wdz9JEPkFu88W-86" value="0..*" style="text;html=1;align=center;verticalAlign=middle;whiteSpace=wrap;rounded=0;fontSize=18;" vertex="1" parent="1">
          <mxGeometry x="1000" y="546" width="60" height="30" as="geometry" />
        </mxCell>
        <mxCell id="fAu7AS8wdz9JEPkFu88W-87" value="" style="line;strokeWidth=2;direction=south;html=1;" vertex="1" parent="1">
          <mxGeometry x="720" y="530" width="10" height="80" as="geometry" />
        </mxCell>
        <mxCell id="fAu7AS8wdz9JEPkFu88W-88" value="&lt;font style=&quot;font-size: 18px;&quot;&gt;1&lt;/font&gt;" style="text;html=1;align=center;verticalAlign=middle;whiteSpace=wrap;rounded=0;" vertex="1" parent="1">
          <mxGeometry x="705" y="580" width="60" height="30" as="geometry" />
        </mxCell>
        <mxCell id="fAu7AS8wdz9JEPkFu88W-90" value="0..*" style="text;html=1;align=center;verticalAlign=middle;whiteSpace=wrap;rounded=0;fontSize=18;" vertex="1" parent="1">
          <mxGeometry x="970" y="806" width="60" height="30" as="geometry" />
        </mxCell>
        <mxCell id="fAu7AS8wdz9JEPkFu88W-91" value="1" style="text;html=1;align=center;verticalAlign=middle;whiteSpace=wrap;rounded=0;fontSize=18;rotation=0;" vertex="1" parent="1">
          <mxGeometry x="410" y="190" width="60" height="30" as="geometry" />
        </mxCell>
        <mxCell id="fAu7AS8wdz9JEPkFu88W-93" value="" style="line;strokeWidth=2;html=1;" vertex="1" parent="1">
          <mxGeometry x="660" y="187.5" width="150" height="10" as="geometry" />
        </mxCell>
        <mxCell id="fAu7AS8wdz9JEPkFu88W-97" value="1" style="text;html=1;align=center;verticalAlign=middle;whiteSpace=wrap;rounded=0;fontSize=18;rotation=0;" vertex="1" parent="1">
          <mxGeometry x="640" y="157.5" width="60" height="30" as="geometry" />
        </mxCell>
        <mxCell id="fAu7AS8wdz9JEPkFu88W-99" value="0..*" style="text;html=1;align=center;verticalAlign=middle;whiteSpace=wrap;rounded=0;fontSize=18;" vertex="1" parent="1">
          <mxGeometry x="760" y="157.5" width="60" height="30" as="geometry" />
        </mxCell>
        <mxCell id="fAu7AS8wdz9JEPkFu88W-100" value="1" style="text;html=1;align=center;verticalAlign=middle;whiteSpace=wrap;rounded=0;fontSize=18;rotation=0;" vertex="1" parent="1">
          <mxGeometry x="760" y="449.5" width="60" height="30" as="geometry" />
        </mxCell>
        <mxCell id="fAu7AS8wdz9JEPkFu88W-101" value="0..*" style="text;html=1;align=center;verticalAlign=middle;whiteSpace=wrap;rounded=0;fontSize=18;" vertex="1" parent="1">
          <mxGeometry x="705" y="740" width="60" height="30" as="geometry" />
        </mxCell>
        <mxCell id="fAu7AS8wdz9JEPkFu88W-105" value="" style="line;strokeWidth=2;direction=south;html=1;" vertex="1" parent="1">
          <mxGeometry x="1005" y="546" width="10" height="60" as="geometry" />
        </mxCell>
        <mxCell id="fAu7AS8wdz9JEPkFu88W-107" value="1..*" style="text;html=1;align=center;verticalAlign=middle;whiteSpace=wrap;rounded=0;fontSize=18;" vertex="1" parent="1">
          <mxGeometry x="230" y="740" width="60" height="30" as="geometry" />
        </mxCell>
        <mxCell id="fAu7AS8wdz9JEPkFu88W-108" value="" style="shape=partialRectangle;whiteSpace=wrap;html=1;top=0;left=0;fillColor=none;" vertex="1" parent="1">
          <mxGeometry x="583" y="736" width="170" height="65" as="geometry" />
        </mxCell>
        <mxCell id="fAu7AS8wdz9JEPkFu88W-109" value="" style="shape=partialRectangle;whiteSpace=wrap;html=1;top=0;left=0;fillColor=none;" vertex="1" parent="1">
          <mxGeometry x="585" y="806" width="430" height="54" as="geometry" />
        </mxCell>
        <mxCell id="fAu7AS8wdz9JEPkFu88W-111" value="0..*" style="text;html=1;align=center;verticalAlign=middle;whiteSpace=wrap;rounded=0;fontSize=18;" vertex="1" parent="1">
          <mxGeometry x="570" y="776" width="60" height="30" as="geometry" />
        </mxCell>
        <mxCell id="fAu7AS8wdz9JEPkFu88W-112" value="0..*" style="text;html=1;align=center;verticalAlign=middle;whiteSpace=wrap;rounded=0;fontSize=18;" vertex="1" parent="1">
          <mxGeometry x="850" y="449.5" width="60" height="30" as="geometry" />
        </mxCell>
        <mxCell id="fAu7AS8wdz9JEPkFu88W-113" value="" style="line;strokeWidth=2;direction=south;html=1;" vertex="1" parent="1">
          <mxGeometry x="444" y="570" width="10" height="90" as="geometry" />
        </mxCell>
        <mxCell id="fAu7AS8wdz9JEPkFu88W-115" value="0..*" style="text;html=1;align=center;verticalAlign=middle;whiteSpace=wrap;rounded=0;fontSize=18;" vertex="1" parent="1">
          <mxGeometry x="440" y="576" width="60" height="30" as="geometry" />
        </mxCell>
        <mxCell id="fAu7AS8wdz9JEPkFu88W-117" value="Avis" style="swimlane;whiteSpace=wrap;html=1;" vertex="1" parent="1">
          <mxGeometry x="810" y="80" width="210" height="200" as="geometry" />
        </mxCell>
        <mxCell id="fAu7AS8wdz9JEPkFu88W-55" value="" style="line;strokeWidth=2;html=1;" vertex="1" parent="fAu7AS8wdz9JEPkFu88W-117">
          <mxGeometry y="125" width="210" height="10" as="geometry" />
        </mxCell>
        <mxCell id="fAu7AS8wdz9JEPkFu88W-127" value="Comment" style="text;html=1;align=center;verticalAlign=middle;resizable=0;points=[];autosize=1;strokeColor=none;fillColor=none;" vertex="1" parent="fAu7AS8wdz9JEPkFu88W-117">
          <mxGeometry x="65" y="30" width="80" height="30" as="geometry" />
        </mxCell>
        <mxCell id="fAu7AS8wdz9JEPkFu88W-129" value="Rating" style="text;html=1;align=center;verticalAlign=middle;resizable=0;points=[];autosize=1;strokeColor=none;fillColor=none;" vertex="1" parent="fAu7AS8wdz9JEPkFu88W-117">
          <mxGeometry x="75" y="50" width="60" height="30" as="geometry" />
        </mxCell>
        <mxCell id="fAu7AS8wdz9JEPkFu88W-130" value="DateAvis" style="text;html=1;align=center;verticalAlign=middle;resizable=0;points=[];autosize=1;strokeColor=none;fillColor=none;" vertex="1" parent="fAu7AS8wdz9JEPkFu88W-117">
          <mxGeometry x="70" y="80" width="70" height="30" as="geometry" />
        </mxCell>
        <mxCell id="fAu7AS8wdz9JEPkFu88W-37" value="1" style="text;html=1;align=center;verticalAlign=middle;whiteSpace=wrap;rounded=0;fontSize=18;" vertex="1" parent="1">
          <mxGeometry x="705" y="530" width="60" height="30" as="geometry" />
        </mxCell>
        <mxCell id="fAu7AS8wdz9JEPkFu88W-125" value="" style="line;strokeWidth=2;html=1;" vertex="1" parent="1">
          <mxGeometry x="780" y="469.5" width="120" height="10" as="geometry" />
        </mxCell>
      </root>
    </mxGraphModel>
  </diagram>
</mxfile>
